<?xml version="1.0" standalone="no"?>
<!DOCTYPE svg PUBLIC "-//W3C//DTD SVG 20010904//EN"
 "http://www.w3.org/TR/2001/REC-SVG-20010904/DTD/svg10.dtd">
<svg version="1.0" xmlns="http://www.w3.org/2000/svg"
 width="841.000000pt" height="728.000000pt" viewBox="0 0 841.000000 728.000000"
 preserveAspectRatio="xMidYMid meet">
<metadata>
Created by potrace 1.16, written by Peter Selinger 2001-2019
</metadata>
<g transform="translate(0.000000,728.000000) scale(0.100000,-0.100000)"
fill="#000000" stroke="none">
<path d="M0 6400 l0 -880 344 0 344 0 6 123 c3 67 8 295 12 507 3 212 8 393
10 403 5 16 40 17 544 17 481 0 538 -2 544 -16 3 -9 6 -1487 6 -3285 l0 -3269
380 0 380 0 0 3285 0 3285 975 0 975 0 0 355 0 355 -2260 0 -2260 0 0 -880z"/>
<path d="M4702 6903 l3 -378 418 -3 417 -2 0 -2910 0 -2910 -680 0 -680 0 0
1065 0 1065 -405 0 -405 0 0 -1415 0 -1415 1470 0 1470 0 0 3640 0 3640 -805
0 -805 0 2 -377z"/>
<path d="M6450 6925 l0 -355 243 0 c133 0 401 -3 594 -7 l353 -6 2 -516 3
-516 378 -3 377 -2 0 880 0 880 -975 0 -975 0 0 -355z"/>
</g>
</svg>
